<svg id="Layer_1" data-name="Layer 1" xmlns="http://www.w3.org/2000/svg" viewBox="0 0 538.83 538.83"><defs><style>.cls-1,.cls-2,.cls-3,.cls-4,.cls-5,.cls-6,.cls-7,.cls-8{fill:none;stroke-miterlimit:10;}.cls-1,.cls-2,.cls-3,.cls-4,.cls-5,.cls-6,.cls-8{stroke:#000;}.cls-1,.cls-7{stroke-width:4px;}.cls-2{stroke-width:0.97px;}.cls-3{stroke-width:3px;}.cls-4{stroke-width:2px;}.cls-5{stroke-width:1px;}.cls-6{stroke-width:1.11px;}.cls-7{stroke:#fff;}.cls-8{stroke-width:18px;}</style></defs><title>Vinarish</title><path d="M636.89,617.16q-28.29,9.35-56,20.42-12.93,5.17-25.7,10.71A973,973,0,0,0,407,728.42l0,0q105.9-70.92,217.87-132.18c46.86-25.63,97.39-50.61,150.71-47.6,32.93,1.86,66.44,18.56,86.69,43.63l-1.21,1a244.75,244.75,0,0,0-74.25-9c-27.68.9-55,6.51-81.89,13.25q-10.18,2.55-20.31,5.34-12,3.27-23.84,6.86T636.89,617.16Z" transform="translate(-364.96 -385.58)"/><path d="M660.82,610c6.26,15.55,3.12,33.85-8.07,47l.06.38q-12,2-24,4.18l-.1-.56c11.15-12.27,14.31-29.33,8.14-43.84q11.86-3.92,23.82-7.53Z" transform="translate(-364.96 -385.58)"/><path d="M636.89,617.16c6.17,14.51,3,31.57-8.14,43.84l.1.56q-23.79,4.38-47.32,9.66l0-.22a64.22,64.22,0,0,1,0-32l-.57-1.42Q608.59,626.51,636.89,617.16Z" transform="translate(-364.96 -385.58)"/><path d="M404.89,730.94c48.33-23.2,98.79-40.37,150.52-53.47q13-3.29,26.12-6.25,23.52-5.31,47.32-9.66,11.94-2.2,24-4.18,12.48-2.08,25-3.93h0c66.59-9.94,134.15-15.86,201-21.59l1.59-.2a73.83,73.83,0,0,1,.89,15.22l-.31,1.38a2684.89,2684.89,0,0,0-482,85.48l5.36-3.61Z" transform="translate(-364.96 -385.58)"/><path class="cls-1" d="M397.9,734.46l1.08-.73,5.36-3.61,2.6-1.74q105.9-70.92,217.87-132.18c46.86-25.63,97.39-50.61,150.71-47.6,32.93,1.86,66.44,18.56,86.69,43.63,9.35,11.57,15.87,24.92,18.21,39.42a73.83,73.83,0,0,1,.89,15.22" transform="translate(-364.96 -385.58)"/><path class="cls-2" d="M881,648.25a2684.89,2684.89,0,0,0-482,85.48l-1,.27" transform="translate(-364.96 -385.58)"/><path class="cls-3" d="M861,593.2a244.75,244.75,0,0,0-74.25-9c-27.68.9-55,6.51-81.89,13.25q-10.18,2.55-20.31,5.34-12,3.27-23.84,6.86t-23.82,7.53q-28.29,9.35-56,20.42-12.93,5.17-25.7,10.71A973,973,0,0,0,407,728.42" transform="translate(-364.96 -385.58)"/><path class="cls-4" d="M878.83,631.85c-66.86,5.73-134.42,11.65-201,21.59h0q-12.54,1.84-25,3.93-12,2-24,4.18-23.79,4.38-47.32,9.66-13.11,3-26.12,6.25c-51.73,13.1-102.19,30.27-150.52,53.47" transform="translate(-364.96 -385.58)"/><path class="cls-1" d="M555.29,648c0,.09,0,.19-.08.29a56,56,0,0,0,.08,28.71" transform="translate(-364.96 -385.58)"/><path class="cls-1" d="M684.61,603c5.33,16.54,2.66,36-6.86,50" transform="translate(-364.96 -385.58)"/><path class="cls-5" d="M581.48,639a64.22,64.22,0,0,0,0,32" transform="translate(-364.96 -385.58)"/><path class="cls-6" d="M660.82,610c6.26,15.55,3.12,33.85-8.07,47" transform="translate(-364.96 -385.58)"/><path class="cls-7" d="M636.82,617l.07.16c6.17,14.51,3,31.57-8.14,43.84" transform="translate(-364.96 -385.58)"/><circle class="cls-8" cx="269.42" cy="269.42" r="260.42"/></svg>